<svg xmlns="http://www.w3.org/2000/svg" xmlns:xlink="http://www.w3.org/1999/xlink" xmlns:s="https://github.com/nturley/netlistsvg" width="362" height="1270"><style>svg {
  stroke:#000;
  fill:none;
}
text {
  fill:#000;
  stroke:none;
  font-size:10px;
  font-weight: bold;
  font-family: "Courier New", monospace;
}
line {
    stroke-linecap: round;
}
.nodelabel {
  text-anchor: middle;
}
.inputPortLabel {
  text-anchor: end;
}
.splitjoinBody {
  fill:#000;
}</style><g s:type="generic" transform="translate(224,398)" s:width="30" s:height="40" id="cell_bpsk_demodulator_inst"><text x="15" y="-4" class="nodelabel cell_bpsk_demodulator_inst" s:attribute="ref">bpsk_demodulator</text><rect width="30" height="160" s:generic="body" fill="#ffae46" rx="0" class="cell_bpsk_demodulator_inst"/><g transform="translate(0,10)" s:x="0" s:y="10" s:pid="in0" id="port_bpsk_demodulator_inst~arstn"><text x="-3" y="-4" class="inputPortLabel cell_bpsk_demodulator_inst">arstn</text></g><g transform="translate(0,30)" s:x="0" s:y="10" s:pid="in0" id="port_bpsk_demodulator_inst~clk"><text x="-3" y="-4" class="inputPortLabel cell_bpsk_demodulator_inst">clk</text></g><g transform="translate(0,50)" s:x="0" s:y="10" s:pid="in0" id="port_bpsk_demodulator_inst~cnt_in"><text x="-3" y="-4" class="inputPortLabel cell_bpsk_demodulator_inst">cnt_in</text></g><g transform="translate(0,70)" s:x="0" s:y="10" s:pid="in0" id="port_bpsk_demodulator_inst~en"><text x="-3" y="-4" class="inputPortLabel cell_bpsk_demodulator_inst">en</text></g><g transform="translate(0,90)" s:x="0" s:y="10" s:pid="in0" id="port_bpsk_demodulator_inst~neg_sin_in"><text x="-3" y="-4" class="inputPortLabel cell_bpsk_demodulator_inst">neg_sin_in</text></g><g transform="translate(0,110)" s:x="0" s:y="10" s:pid="in0" id="port_bpsk_demodulator_inst~q"><text x="-3" y="-4" class="inputPortLabel cell_bpsk_demodulator_inst">q</text></g><g transform="translate(0,130)" s:x="0" s:y="10" s:pid="in0" id="port_bpsk_demodulator_inst~signal_in"><text x="-3" y="-4" class="inputPortLabel cell_bpsk_demodulator_inst">signal_in</text></g><g transform="translate(0,150)" s:x="0" s:y="10" s:pid="in0" id="port_bpsk_demodulator_inst~sin_in"><text x="-3" y="-4" class="inputPortLabel cell_bpsk_demodulator_inst">sin_in</text></g></g><g s:type="generic" transform="translate(230,190)" s:width="30" s:height="40" id="cell_bpsk_modulator_inst"><text x="15" y="-4" class="nodelabel cell_bpsk_modulator_inst" s:attribute="ref">bpsk_modulator</text><rect width="30" height="160" s:generic="body" fill="#ffae46" rx="0" class="cell_bpsk_modulator_inst"/><g transform="translate(0,10)" s:x="0" s:y="10" s:pid="in0" id="port_bpsk_modulator_inst~arstn"><text x="-3" y="-4" class="inputPortLabel cell_bpsk_modulator_inst">arstn</text></g><g transform="translate(0,30)" s:x="0" s:y="10" s:pid="in0" id="port_bpsk_modulator_inst~clk"><text x="-3" y="-4" class="inputPortLabel cell_bpsk_modulator_inst">clk</text></g><g transform="translate(0,50)" s:x="0" s:y="10" s:pid="in0" id="port_bpsk_modulator_inst~cnt_in"><text x="-3" y="-4" class="inputPortLabel cell_bpsk_modulator_inst">cnt_in</text></g><g transform="translate(0,70)" s:x="0" s:y="10" s:pid="in0" id="port_bpsk_modulator_inst~data"><text x="-3" y="-4" class="inputPortLabel cell_bpsk_modulator_inst">data</text></g><g transform="translate(0,90)" s:x="0" s:y="10" s:pid="in0" id="port_bpsk_modulator_inst~en"><text x="-3" y="-4" class="inputPortLabel cell_bpsk_modulator_inst">en</text></g><g transform="translate(0,110)" s:x="0" s:y="10" s:pid="in0" id="port_bpsk_modulator_inst~neg_sin_in"><text x="-3" y="-4" class="inputPortLabel cell_bpsk_modulator_inst">neg_sin_in</text></g><g transform="translate(0,130)" s:x="0" s:y="10" s:pid="in0" id="port_bpsk_modulator_inst~signal_out"><text x="-3" y="-4" class="inputPortLabel cell_bpsk_modulator_inst">signal_out</text></g><g transform="translate(0,150)" s:x="0" s:y="10" s:pid="in0" id="port_bpsk_modulator_inst~sin_in"><text x="-3" y="-4" class="inputPortLabel cell_bpsk_modulator_inst">sin_in</text></g></g><g s:type="generic" transform="translate(230,754)" s:width="30" s:height="40" id="cell_decoder_inst"><text x="15" y="-4" class="nodelabel cell_decoder_inst" s:attribute="ref">hamming_decoder</text><rect width="30" height="100" s:generic="body" fill="#ffae46" rx="0" class="cell_decoder_inst"/><g transform="translate(0,10)" s:x="0" s:y="10" s:pid="in0" id="port_decoder_inst~arstn"><text x="-3" y="-4" class="inputPortLabel cell_decoder_inst">arstn</text></g><g transform="translate(0,30)" s:x="0" s:y="10" s:pid="in0" id="port_decoder_inst~clk"><text x="-3" y="-4" class="inputPortLabel cell_decoder_inst">clk</text></g><g transform="translate(0,50)" s:x="0" s:y="10" s:pid="in0" id="port_decoder_inst~hc_in"><text x="-3" y="-4" class="inputPortLabel cell_decoder_inst">hc_in</text></g><g transform="translate(0,70)" s:x="0" s:y="10" s:pid="in0" id="port_decoder_inst~q"><text x="-3" y="-4" class="inputPortLabel cell_decoder_inst">q</text></g><g transform="translate(0,90)" s:x="0" s:y="10" s:pid="in0" id="port_decoder_inst~rden"><text x="-3" y="-4" class="inputPortLabel cell_decoder_inst">rden</text></g></g><g s:type="generic" transform="translate(230,606)" s:width="30" s:height="40" id="cell_encoder_inst"><text x="15" y="-4" class="nodelabel cell_encoder_inst" s:attribute="ref">hamming_encoder</text><rect width="30" height="100" s:generic="body" fill="#ffae46" rx="0" class="cell_encoder_inst"/><g transform="translate(0,10)" s:x="0" s:y="10" s:pid="in0" id="port_encoder_inst~arstn"><text x="-3" y="-4" class="inputPortLabel cell_encoder_inst">arstn</text></g><g transform="translate(0,30)" s:x="0" s:y="10" s:pid="in0" id="port_encoder_inst~clk"><text x="-3" y="-4" class="inputPortLabel cell_encoder_inst">clk</text></g><g transform="translate(0,50)" s:x="0" s:y="10" s:pid="in0" id="port_encoder_inst~data"><text x="-3" y="-4" class="inputPortLabel cell_encoder_inst">data</text></g><g transform="translate(0,70)" s:x="0" s:y="10" s:pid="in0" id="port_encoder_inst~hc_out"><text x="-3" y="-4" class="inputPortLabel cell_encoder_inst">hc_out</text></g><g transform="translate(0,90)" s:x="0" s:y="10" s:pid="in0" id="port_encoder_inst~wren"><text x="-3" y="-4" class="inputPortLabel cell_encoder_inst">wren</text></g></g><g s:type="generic" transform="translate(230,22)" s:width="30" s:height="40" id="cell_sin_generator_inst"><text x="15" y="-4" class="nodelabel cell_sin_generator_inst" s:attribute="ref">sin_generator</text><rect width="30" height="120" s:generic="body" fill="#ffae46" rx="0" class="cell_sin_generator_inst"/><g transform="translate(0,10)" s:x="0" s:y="10" s:pid="in0" id="port_sin_generator_inst~arstn"><text x="-3" y="-4" class="inputPortLabel cell_sin_generator_inst">arstn</text></g><g transform="translate(0,30)" s:x="0" s:y="10" s:pid="in0" id="port_sin_generator_inst~clk"><text x="-3" y="-4" class="inputPortLabel cell_sin_generator_inst">clk</text></g><g transform="translate(0,50)" s:x="0" s:y="10" s:pid="in0" id="port_sin_generator_inst~cnt_out"><text x="-3" y="-4" class="inputPortLabel cell_sin_generator_inst">cnt_out</text></g><g transform="translate(0,70)" s:x="0" s:y="10" s:pid="in0" id="port_sin_generator_inst~en"><text x="-3" y="-4" class="inputPortLabel cell_sin_generator_inst">en</text></g><g transform="translate(0,90)" s:x="0" s:y="10" s:pid="in0" id="port_sin_generator_inst~neg_sin_out"><text x="-3" y="-4" class="inputPortLabel cell_sin_generator_inst">neg_sin_out</text></g><g transform="translate(0,110)" s:x="0" s:y="10" s:pid="in0" id="port_sin_generator_inst~sin_out"><text x="-3" y="-4" class="inputPortLabel cell_sin_generator_inst">sin_out</text></g></g><g s:type="generic" transform="translate(230,902)" s:width="30" s:height="40" id="cell_uart_rx_inst"><text x="15" y="-4" class="nodelabel cell_uart_rx_inst" s:attribute="ref">UART_RX</text><rect width="30" height="100" s:generic="body" fill="#ffae46" rx="0" class="cell_uart_rx_inst"/><g transform="translate(0,10)" s:x="0" s:y="10" s:pid="in0" id="port_uart_rx_inst~i_Clock"><text x="-3" y="-4" class="inputPortLabel cell_uart_rx_inst">i_Clock</text></g><g transform="translate(0,30)" s:x="0" s:y="10" s:pid="in0" id="port_uart_rx_inst~i_RX_Serial"><text x="-3" y="-4" class="inputPortLabel cell_uart_rx_inst">i_RX_Serial</text></g><g transform="translate(0,50)" s:x="0" s:y="10" s:pid="in0" id="port_uart_rx_inst~i_Rst_L"><text x="-3" y="-4" class="inputPortLabel cell_uart_rx_inst">i_Rst_L</text></g><g transform="translate(0,70)" s:x="0" s:y="10" s:pid="in0" id="port_uart_rx_inst~o_RX_Byte"><text x="-3" y="-4" class="inputPortLabel cell_uart_rx_inst">o_RX_Byte</text></g><g transform="translate(0,90)" s:x="0" s:y="10" s:pid="in0" id="port_uart_rx_inst~o_RX_DV"><text x="-3" y="-4" class="inputPortLabel cell_uart_rx_inst">o_RX_DV</text></g></g><g s:type="generic" transform="translate(230,1050)" s:width="30" s:height="40" id="cell_uart_tx_inst"><text x="15" y="-4" class="nodelabel cell_uart_tx_inst" s:attribute="ref">UART_TX</text><rect width="30" height="140" s:generic="body" fill="#ffae46" rx="0" class="cell_uart_tx_inst"/><g transform="translate(0,10)" s:x="0" s:y="10" s:pid="in0" id="port_uart_tx_inst~i_Clock"><text x="-3" y="-4" class="inputPortLabel cell_uart_tx_inst">i_Clock</text></g><g transform="translate(0,30)" s:x="0" s:y="10" s:pid="in0" id="port_uart_tx_inst~i_Rst_L"><text x="-3" y="-4" class="inputPortLabel cell_uart_tx_inst">i_Rst_L</text></g><g transform="translate(0,50)" s:x="0" s:y="10" s:pid="in0" id="port_uart_tx_inst~i_TX_Byte"><text x="-3" y="-4" class="inputPortLabel cell_uart_tx_inst">i_TX_Byte</text></g><g transform="translate(0,70)" s:x="0" s:y="10" s:pid="in0" id="port_uart_tx_inst~i_TX_DV"><text x="-3" y="-4" class="inputPortLabel cell_uart_tx_inst">i_TX_DV</text></g><g transform="translate(0,90)" s:x="0" s:y="10" s:pid="in0" id="port_uart_tx_inst~o_TX_Active"><text x="-3" y="-4" class="inputPortLabel cell_uart_tx_inst">o_TX_Active</text></g><g transform="translate(0,110)" s:x="0" s:y="10" s:pid="in0" id="port_uart_tx_inst~o_TX_Done"><text x="-3" y="-4" class="inputPortLabel cell_uart_tx_inst">o_TX_Done</text></g><g transform="translate(0,130)" s:x="0" s:y="10" s:pid="in0" id="port_uart_tx_inst~o_TX_Serial"><text x="-3" y="-4" class="inputPortLabel cell_uart_tx_inst">o_TX_Serial</text></g></g><g s:type="inputExt" transform="translate(12,418.5)" s:width="30" s:height="20" id="cell_clk"><text x="15" y="-4" class="nodelabel cell_clk" s:attribute="ref">clk</text><s:alias val="$_inputExt_"/><path d="M0,0 L0,20 L15,20 L30,10 L15,0 Z" fill="#8bcaff" class="cell_clk"/><g s:x="30" s:y="10" s:pid="Y"/></g><g s:type="inputExt" transform="translate(12,353.5)" s:width="30" s:height="20" id="cell_arstn"><text x="15" y="-4" class="nodelabel cell_arstn" s:attribute="ref">arstn</text><s:alias val="$_inputExt_"/><path d="M0,0 L0,20 L15,20 L30,10 L15,0 Z" fill="#8bcaff" class="cell_arstn"/><g s:x="30" s:y="10" s:pid="Y"/></g><g s:type="inputExt" transform="translate(12,922.5)" s:width="30" s:height="20" id="cell_data"><text x="15" y="-4" class="nodelabel cell_data" s:attribute="ref">data</text><s:alias val="$_inputExt_"/><path d="M0,0 L0,20 L15,20 L30,10 L15,0 Z" fill="#8bcaff" class="cell_data"/><g s:x="30" s:y="10" s:pid="Y"/></g><g s:type="inputExt" transform="translate(12,170.5)" s:width="30" s:height="20" id="cell_en"><text x="15" y="-4" class="nodelabel cell_en" s:attribute="ref">en</text><s:alias val="$_inputExt_"/><path d="M0,0 L0,20 L15,20 L30,10 L15,0 Z" fill="#8bcaff" class="cell_en"/><g s:x="30" s:y="10" s:pid="Y"/></g><g s:type="outputExt" transform="translate(230,1238)" s:width="30" s:height="20" id="cell_q"><text x="15" y="-4" class="nodelabel cell_q" s:attribute="ref">q</text><s:alias val="$_outputExt_"/><path d="M30,0 L30,20 L15,20 L0,10 L15,0 Z" fill="#169300" class="cell_q"/><g s:x="0" s:y="10" s:pid="A"/></g><line x1="42" x2="92" y1="363.5" y2="363.5" class="net_3 width_1" style="stroke-width: 1"/><line x1="92" x2="92" y1="363.5" y2="408.5" class="net_3 width_1" style="stroke-width: 1"/><circle cx="92" cy="363.5" r="2" style="fill:#000" class="net_3 width_1"/><circle cx="92" cy="408.5" r="2" style="fill:#000" class="net_3 width_1"/><line x1="92" x2="224" y1="408.5" y2="408.5" class="net_3 width_1" style="stroke-width: 1"/><line x1="42" x2="92" y1="363.5" y2="363.5" class="net_3 width_1" style="stroke-width: 1"/><line x1="92" x2="92" y1="363.5" y2="200.5" class="net_3 width_1" style="stroke-width: 1"/><circle cx="92" cy="200.5" r="2" style="fill:#000" class="net_3 width_1"/><line x1="92" x2="230" y1="200.5" y2="200.5" class="net_3 width_1" style="stroke-width: 1"/><line x1="42" x2="92" y1="363.5" y2="363.5" class="net_3 width_1" style="stroke-width: 1"/><line x1="92" x2="92" y1="363.5" y2="764.5" class="net_3 width_1" style="stroke-width: 1"/><circle cx="92" cy="764.5" r="2" style="fill:#000" class="net_3 width_1"/><line x1="92" x2="230" y1="764.5" y2="764.5" class="net_3 width_1" style="stroke-width: 1"/><line x1="42" x2="92" y1="363.5" y2="363.5" class="net_3 width_1" style="stroke-width: 1"/><line x1="92" x2="92" y1="363.5" y2="616.5" class="net_3 width_1" style="stroke-width: 1"/><circle cx="92" cy="616.5" r="2" style="fill:#000" class="net_3 width_1"/><line x1="92" x2="230" y1="616.5" y2="616.5" class="net_3 width_1" style="stroke-width: 1"/><line x1="42" x2="92" y1="363.5" y2="363.5" class="net_3 width_1" style="stroke-width: 1"/><line x1="92" x2="92" y1="363.5" y2="32.5" class="net_3 width_1" style="stroke-width: 1"/><line x1="92" x2="230" y1="32.5" y2="32.5" class="net_3 width_1" style="stroke-width: 1"/><line x1="42" x2="92" y1="363.5" y2="363.5" class="net_3 width_1" style="stroke-width: 1"/><line x1="92" x2="92" y1="363.5" y2="952.5" class="net_3 width_1" style="stroke-width: 1"/><circle cx="92" cy="952.5" r="2" style="fill:#000" class="net_3 width_1"/><line x1="92" x2="229" y1="952.5" y2="952.5" class="net_3 width_1" style="stroke-width: 1"/><line x1="42" x2="92" y1="363.5" y2="363.5" class="net_3 width_1" style="stroke-width: 1"/><line x1="92" x2="92" y1="363.5" y2="1080.5" class="net_3 width_1" style="stroke-width: 1"/><line x1="92" x2="229" y1="1080.5" y2="1080.5" class="net_3 width_1" style="stroke-width: 1"/><line x1="42" x2="223" y1="428.5" y2="428.5" class="net_2 width_1" style="stroke-width: 1"/><line x1="42" x2="122" y1="428.5" y2="428.5" class="net_2 width_1" style="stroke-width: 1"/><line x1="122" x2="122" y1="428.5" y2="220.5" class="net_2 width_1" style="stroke-width: 1"/><circle cx="122" cy="428.5" r="2" style="fill:#000" class="net_2 width_1"/><circle cx="122" cy="220.5" r="2" style="fill:#000" class="net_2 width_1"/><line x1="122" x2="229" y1="220.5" y2="220.5" class="net_2 width_1" style="stroke-width: 1"/><line x1="42" x2="122" y1="428.5" y2="428.5" class="net_2 width_1" style="stroke-width: 1"/><line x1="122" x2="122" y1="428.5" y2="784.5" class="net_2 width_1" style="stroke-width: 1"/><circle cx="122" cy="784.5" r="2" style="fill:#000" class="net_2 width_1"/><line x1="122" x2="229" y1="784.5" y2="784.5" class="net_2 width_1" style="stroke-width: 1"/><line x1="42" x2="122" y1="428.5" y2="428.5" class="net_2 width_1" style="stroke-width: 1"/><line x1="122" x2="122" y1="428.5" y2="636.5" class="net_2 width_1" style="stroke-width: 1"/><circle cx="122" cy="636.5" r="2" style="fill:#000" class="net_2 width_1"/><line x1="122" x2="229" y1="636.5" y2="636.5" class="net_2 width_1" style="stroke-width: 1"/><line x1="42" x2="122" y1="428.5" y2="428.5" class="net_2 width_1" style="stroke-width: 1"/><line x1="122" x2="122" y1="428.5" y2="52.5" class="net_2 width_1" style="stroke-width: 1"/><line x1="122" x2="229" y1="52.5" y2="52.5" class="net_2 width_1" style="stroke-width: 1"/><line x1="42" x2="122" y1="428.5" y2="428.5" class="net_2 width_1" style="stroke-width: 1"/><line x1="122" x2="122" y1="428.5" y2="912.5" class="net_2 width_1" style="stroke-width: 1"/><circle cx="122" cy="912.5" r="2" style="fill:#000" class="net_2 width_1"/><line x1="122" x2="230" y1="912.5" y2="912.5" class="net_2 width_1" style="stroke-width: 1"/><line x1="42" x2="122" y1="428.5" y2="428.5" class="net_2 width_1" style="stroke-width: 1"/><line x1="122" x2="122" y1="428.5" y2="1060.5" class="net_2 width_1" style="stroke-width: 1"/><line x1="122" x2="230" y1="1060.5" y2="1060.5" class="net_2 width_1" style="stroke-width: 1"/><line x1="42" x2="112" y1="55.5" y2="55.5" class="net_7,8,9,10,11,12,13,14 width_8" style="stroke-width: 2"/><line x1="112" x2="112" y1="55.5" y2="448.5" class="net_7,8,9,10,11,12,13,14 width_8" style="stroke-width: 2"/><line x1="112" x2="223" y1="448.5" y2="448.5" class="net_7,8,9,10,11,12,13,14 width_8" style="stroke-width: 2"/><line x1="42" x2="112" y1="55.5" y2="55.5" class="net_7,8,9,10,11,12,13,14 width_8" style="stroke-width: 2"/><line x1="112" x2="112" y1="55.5" y2="240.5" class="net_7,8,9,10,11,12,13,14 width_8" style="stroke-width: 2"/><circle cx="112" cy="240.5" r="3" style="fill:#000" class="net_7,8,9,10,11,12,13,14 width_8"/><line x1="112" x2="229" y1="240.5" y2="240.5" class="net_7,8,9,10,11,12,13,14 width_8" style="stroke-width: 2"/><line x1="42" x2="112" y1="55.5" y2="55.5" class="net_7,8,9,10,11,12,13,14 width_8" style="stroke-width: 2"/><line x1="112" x2="112" y1="55.5" y2="72.5" class="net_7,8,9,10,11,12,13,14 width_8" style="stroke-width: 2"/><circle cx="112" cy="72.5" r="3" style="fill:#000" class="net_7,8,9,10,11,12,13,14 width_8"/><line x1="112" x2="229" y1="72.5" y2="72.5" class="net_7,8,9,10,11,12,13,14 width_8" style="stroke-width: 2"/><line x1="42" x2="142" y1="180.5" y2="180.5" class="net_5 width_1" style="stroke-width: 1"/><line x1="142" x2="142" y1="180.5" y2="468.5" class="net_5 width_1" style="stroke-width: 1"/><circle cx="142" cy="180.5" r="2" style="fill:#000" class="net_5 width_1"/><circle cx="142" cy="468.5" r="2" style="fill:#000" class="net_5 width_1"/><line x1="142" x2="223" y1="468.5" y2="468.5" class="net_5 width_1" style="stroke-width: 1"/><line x1="42" x2="142" y1="180.5" y2="180.5" class="net_5 width_1" style="stroke-width: 1"/><line x1="142" x2="142" y1="180.5" y2="280.5" class="net_5 width_1" style="stroke-width: 1"/><circle cx="142" cy="280.5" r="2" style="fill:#000" class="net_5 width_1"/><line x1="142" x2="229" y1="280.5" y2="280.5" class="net_5 width_1" style="stroke-width: 1"/><line x1="42" x2="142" y1="180.5" y2="180.5" class="net_5 width_1" style="stroke-width: 1"/><line x1="142" x2="142" y1="180.5" y2="844.5" class="net_5 width_1" style="stroke-width: 1"/><line x1="142" x2="229" y1="844.5" y2="844.5" class="net_5 width_1" style="stroke-width: 1"/><line x1="42" x2="142" y1="180.5" y2="180.5" class="net_5 width_1" style="stroke-width: 1"/><line x1="142" x2="142" y1="180.5" y2="696.5" class="net_5 width_1" style="stroke-width: 1"/><circle cx="142" cy="696.5" r="2" style="fill:#000" class="net_5 width_1"/><line x1="142" x2="229" y1="696.5" y2="696.5" class="net_5 width_1" style="stroke-width: 1"/><line x1="42" x2="142" y1="180.5" y2="180.5" class="net_5 width_1" style="stroke-width: 1"/><line x1="142" x2="142" y1="180.5" y2="92.5" class="net_5 width_1" style="stroke-width: 1"/><line x1="142" x2="229" y1="92.5" y2="92.5" class="net_5 width_1" style="stroke-width: 1"/><line x1="42" x2="102" y1="90.5" y2="90.5" class="net_15,16,17,18,19,20,21,22,23,24,25,26 width_12" style="stroke-width: 2"/><line x1="102" x2="102" y1="90.5" y2="488.5" class="net_15,16,17,18,19,20,21,22,23,24,25,26 width_12" style="stroke-width: 2"/><line x1="102" x2="223" y1="488.5" y2="488.5" class="net_15,16,17,18,19,20,21,22,23,24,25,26 width_12" style="stroke-width: 2"/><line x1="42" x2="102" y1="90.5" y2="90.5" class="net_15,16,17,18,19,20,21,22,23,24,25,26 width_12" style="stroke-width: 2"/><line x1="102" x2="102" y1="90.5" y2="300.5" class="net_15,16,17,18,19,20,21,22,23,24,25,26 width_12" style="stroke-width: 2"/><circle cx="102" cy="300.5" r="3" style="fill:#000" class="net_15,16,17,18,19,20,21,22,23,24,25,26 width_12"/><line x1="102" x2="229" y1="300.5" y2="300.5" class="net_15,16,17,18,19,20,21,22,23,24,25,26 width_12" style="stroke-width: 2"/><line x1="42" x2="102" y1="90.5" y2="90.5" class="net_15,16,17,18,19,20,21,22,23,24,25,26 width_12" style="stroke-width: 2"/><line x1="102" x2="102" y1="90.5" y2="112.5" class="net_15,16,17,18,19,20,21,22,23,24,25,26 width_12" style="stroke-width: 2"/><circle cx="102" cy="112.5" r="3" style="fill:#000" class="net_15,16,17,18,19,20,21,22,23,24,25,26 width_12"/><line x1="102" x2="229" y1="112.5" y2="112.5" class="net_15,16,17,18,19,20,21,22,23,24,25,26 width_12" style="stroke-width: 2"/><line x1="42" x2="223" y1="508.5" y2="508.5" class="net_27,28,29,30,31,32,33,34,35,36,37,38 width_12" style="stroke-width: 2"/><line x1="42" x2="72" y1="508.5" y2="508.5" class="net_27,28,29,30,31,32,33,34,35,36,37,38 width_12" style="stroke-width: 2"/><line x1="72" x2="72" y1="508.5" y2="804.5" class="net_27,28,29,30,31,32,33,34,35,36,37,38 width_12" style="stroke-width: 2"/><circle cx="72" cy="508.5" r="3" style="fill:#000" class="net_27,28,29,30,31,32,33,34,35,36,37,38 width_12"/><line x1="72" x2="229" y1="804.5" y2="804.5" class="net_27,28,29,30,31,32,33,34,35,36,37,38 width_12" style="stroke-width: 2"/><line x1="42" x2="132" y1="225.5" y2="225.5" class="net_39,40,41,42,43,44,45,46,47,48,49,50 width_12" style="stroke-width: 2"/><line x1="132" x2="132" y1="225.5" y2="528.5" class="net_39,40,41,42,43,44,45,46,47,48,49,50 width_12" style="stroke-width: 2"/><line x1="132" x2="223" y1="528.5" y2="528.5" class="net_39,40,41,42,43,44,45,46,47,48,49,50 width_12" style="stroke-width: 2"/><line x1="42" x2="132" y1="225.5" y2="225.5" class="net_39,40,41,42,43,44,45,46,47,48,49,50 width_12" style="stroke-width: 2"/><line x1="132" x2="132" y1="225.5" y2="320.5" class="net_39,40,41,42,43,44,45,46,47,48,49,50 width_12" style="stroke-width: 2"/><circle cx="132" cy="320.5" r="3" style="fill:#000" class="net_39,40,41,42,43,44,45,46,47,48,49,50 width_12"/><line x1="132" x2="229" y1="320.5" y2="320.5" class="net_39,40,41,42,43,44,45,46,47,48,49,50 width_12" style="stroke-width: 2"/><line x1="42" x2="152" y1="125.5" y2="125.5" class="net_51,52,53,54,55,56,57,58,59,60,61,62 width_12" style="stroke-width: 2"/><line x1="152" x2="152" y1="125.5" y2="548.5" class="net_51,52,53,54,55,56,57,58,59,60,61,62 width_12" style="stroke-width: 2"/><line x1="152" x2="223" y1="548.5" y2="548.5" class="net_51,52,53,54,55,56,57,58,59,60,61,62 width_12" style="stroke-width: 2"/><line x1="42" x2="152" y1="125.5" y2="125.5" class="net_51,52,53,54,55,56,57,58,59,60,61,62 width_12" style="stroke-width: 2"/><line x1="152" x2="152" y1="125.5" y2="340.5" class="net_51,52,53,54,55,56,57,58,59,60,61,62 width_12" style="stroke-width: 2"/><circle cx="152" cy="340.5" r="3" style="fill:#000" class="net_51,52,53,54,55,56,57,58,59,60,61,62 width_12"/><line x1="152" x2="229" y1="340.5" y2="340.5" class="net_51,52,53,54,55,56,57,58,59,60,61,62 width_12" style="stroke-width: 2"/><line x1="42" x2="152" y1="125.5" y2="125.5" class="net_51,52,53,54,55,56,57,58,59,60,61,62 width_12" style="stroke-width: 2"/><line x1="152" x2="152" y1="125.5" y2="132.5" class="net_51,52,53,54,55,56,57,58,59,60,61,62 width_12" style="stroke-width: 2"/><circle cx="152" cy="132.5" r="3" style="fill:#000" class="net_51,52,53,54,55,56,57,58,59,60,61,62 width_12"/><line x1="152" x2="229" y1="132.5" y2="132.5" class="net_51,52,53,54,55,56,57,58,59,60,61,62 width_12" style="stroke-width: 2"/><line x1="42" x2="229" y1="260.5" y2="260.5" class="net_63,64,65,66,67,68,69,70,71,72,73,74 width_12" style="stroke-width: 2"/><line x1="42" x2="82" y1="260.5" y2="260.5" class="net_63,64,65,66,67,68,69,70,71,72,73,74 width_12" style="stroke-width: 2"/><line x1="82" x2="82" y1="260.5" y2="676.5" class="net_63,64,65,66,67,68,69,70,71,72,73,74 width_12" style="stroke-width: 2"/><circle cx="82" cy="260.5" r="3" style="fill:#000" class="net_63,64,65,66,67,68,69,70,71,72,73,74 width_12"/><line x1="82" x2="229" y1="676.5" y2="676.5" class="net_63,64,65,66,67,68,69,70,71,72,73,74 width_12" style="stroke-width: 2"/><line x1="42" x2="229" y1="824.5" y2="824.5" class="net_75,76,77,78,79,80,81,82 width_8" style="stroke-width: 2"/><line x1="42" x2="52" y1="824.5" y2="824.5" class="net_75,76,77,78,79,80,81,82 width_8" style="stroke-width: 2"/><line x1="52" x2="52" y1="824.5" y2="1100.5" class="net_75,76,77,78,79,80,81,82 width_8" style="stroke-width: 2"/><circle cx="52" cy="824.5" r="3" style="fill:#000" class="net_75,76,77,78,79,80,81,82 width_8"/><line x1="52" x2="229" y1="1100.5" y2="1100.5" class="net_75,76,77,78,79,80,81,82 width_8" style="stroke-width: 2"/><line x1="42" x2="229" y1="656.5" y2="656.5" class="net_83,84,85,86,87,88,89,90 width_8" style="stroke-width: 2"/><line x1="42" x2="62" y1="656.5" y2="656.5" class="net_83,84,85,86,87,88,89,90 width_8" style="stroke-width: 2"/><line x1="62" x2="62" y1="656.5" y2="972.5" class="net_83,84,85,86,87,88,89,90 width_8" style="stroke-width: 2"/><circle cx="62" cy="656.5" r="3" style="fill:#000" class="net_83,84,85,86,87,88,89,90 width_8"/><line x1="62" x2="229" y1="972.5" y2="972.5" class="net_83,84,85,86,87,88,89,90 width_8" style="stroke-width: 2"/><line x1="42" x2="229" y1="932.5" y2="932.5" class="net_4 width_1" style="stroke-width: 1"/><line x1="42" x2="132" y1="1120.5" y2="1120.5" class="net_91 width_1" style="stroke-width: 1"/><line x1="132" x2="132" y1="1120.5" y2="992.5" class="net_91 width_1" style="stroke-width: 1"/><circle cx="132" cy="1120.5" r="2" style="fill:#000" class="net_91 width_1"/><line x1="132" x2="229" y1="992.5" y2="992.5" class="net_91 width_1" style="stroke-width: 1"/><line x1="42" x2="229" y1="1120.5" y2="1120.5" class="net_91 width_1" style="stroke-width: 1"/><line x1="42" x2="52" y1="1248" y2="1248" class="net_6 width_1" style="stroke-width: 1"/><line x1="52" x2="52" y1="1248" y2="1180.5" class="net_6 width_1" style="stroke-width: 1"/><circle cx="52" cy="1248" r="2" style="fill:#000" class="net_6 width_1"/><line x1="52" x2="229" y1="1180.5" y2="1180.5" class="net_6 width_1" style="stroke-width: 1"/><line x1="42" x2="230" y1="1248" y2="1248" class="net_6 width_1" style="stroke-width: 1"/></svg>